<svg width="1263" height="308" viewBox="0 0 1263 308" fill="none" xmlns="http://www.w3.org/2000/svg">
<path fill-rule="evenodd" clip-rule="evenodd" d="M175.032 154.588C175.032 202.12 136.495 240.651 88.9571 240.651C41.4197 240.651 2.88281 202.12 2.88281 154.588C2.88281 107.056 41.4197 68.5234 88.9571 68.5234C136.495 68.5234 175.032 107.056 175.032 154.588ZM143.266 154.588C143.266 184.578 118.951 208.89 88.9571 208.89C58.9633 208.89 34.6483 184.578 34.6483 154.588C34.6483 124.597 58.9633 100.285 88.9571 100.285C118.951 100.285 143.266 124.597 143.266 154.588Z" fill="#120136"/>
<path d="M290.535 100.244C288.308 97.674 285.914 95.2301 283.362 92.9303C267.353 78.5081 246.361 70.8763 224.826 71.6492C203.291 72.422 182.901 81.5386 167.967 97.0715C153.034 112.604 144.727 133.335 144.803 154.881C144.88 176.427 153.334 197.099 168.378 212.525C183.422 227.951 203.876 236.923 225.416 237.542C246.956 238.163 267.891 230.381 283.798 215.846C286.187 213.662 288.436 211.351 290.535 208.928L266.443 188.227C265.171 189.688 263.811 191.082 262.367 192.401C252.55 201.373 239.626 206.176 226.329 205.794C213.033 205.411 200.407 199.873 191.121 190.351C181.835 180.829 176.616 168.068 176.569 154.768C176.521 141.468 181.649 128.671 190.867 119.083C200.086 109.495 212.672 103.868 225.965 103.39C239.259 102.914 252.216 107.625 262.097 116.527C263.642 117.918 265.093 119.394 266.443 120.946L290.535 100.244Z" fill="#120136"/>
<path d="M310.291 172.003V35.7344H342.058V74.6682H389.706V104.381H342.058V174.052C342.058 191.876 356.508 206.326 374.334 206.326H389.706V236.039H374.334C338.966 236.039 310.291 207.369 310.291 172.003Z" fill="#120136"/>
<path fill-rule="evenodd" clip-rule="evenodd" d="M540.336 215.403C527.436 229.139 509.458 237.547 487.797 237.577C442.009 237.516 404.908 200.383 404.908 154.586C404.908 108.789 442.009 71.6561 487.797 71.5957C509.458 71.6244 527.436 80.033 540.336 93.7686V74.6693H571.077V234.503H540.336V215.403ZM487.908 205.815C516.204 205.815 539.144 182.879 539.144 154.586C539.144 126.293 516.204 103.357 487.908 103.357C459.613 103.357 436.673 126.293 436.673 154.586C436.673 182.879 459.613 205.815 487.908 205.815Z" fill="#120136"/>
<path d="M1145.13 74.7324H1106.51L1223.36 234.552H1261.98L1145.13 74.7324Z" fill="#120136"/>
<path d="M1223.35 74.7324H1261.97L1145.13 234.552H1106.51L1223.35 74.7324Z" fill="#120136"/>
<path d="M1017.47 75.0728V234.554H1049.37V105.308H1095.56V75.0728H1049.37C1049.37 46.4992 1064.34 36.1468 1082.27 36.1468H1095.56V6.24414H1082.27C1043.06 6.24414 1017.47 31.8801 1017.47 75.0728Z" fill="#120136"/>
<path d="M643.07 154.197C643.07 29.3297 669.837 2.56641 794.725 2.56641C919.613 2.56641 946.38 29.3297 946.38 154.197C946.38 279.065 919.613 305.828 794.725 305.828C669.837 305.828 643.07 279.065 643.07 154.197Z" fill="url(#paint0_linear_1849_1144)"/>
<path d="M748.045 35.739C788.554 36.2359 844.72 102.084 869.819 147.556C888.212 129.168 898.402 112.023 899.643 99.5988C910.579 101.587 920.519 108.296 920.768 120.223C921.264 135.629 907.347 157.246 883.987 178.616C894.423 206.446 895.667 229.555 885.727 240.239C881.253 244.712 875.288 246.203 868.826 246.203C869.573 231.542 866.092 215.143 859.63 198.246C814.897 230.549 759.974 251.422 727.169 249.929C716.236 249.434 707.786 246.451 702.814 240.488C695.855 232.537 698.838 223.591 699.336 222.349C745.311 229.306 808.435 197.004 845.713 168.677C814.401 111.774 758.981 59.3446 725.43 59.3446C726.425 45.1814 733.88 35.4905 748.045 35.739Z" fill="url(#paint1_radial_1849_1144)"/>
<path d="M847.696 275.028C805.697 275.028 751.767 213.901 727.163 174.144C710.017 190.543 683.176 223.592 697.839 241.979C695.603 239.494 674.975 213.404 674.477 212.41C664.786 195.761 679.449 168.18 709.022 140.599C698.583 117.241 694.358 100.593 694.358 87.9204C694.358 62.5753 710.325 51.1246 725.922 38.4727C712.5 57.8542 726.914 96.6174 736.857 117.987C775.873 89.9084 831.542 66.0541 868.323 66.0541C882.242 66.0541 892.927 68.7874 901.377 79.4722L920.016 102.829C888.453 75.7449 796.5 120.223 755.248 150.538C780.347 190.046 850.928 271.547 888.206 244.216C879.259 254.404 861.117 275.028 847.696 275.028Z" fill="url(#paint2_radial_1849_1144)"/>
<path d="M698.588 242.724C698.339 242.478 698.091 242.229 697.842 241.98L698.588 242.724Z" fill="white"/>
<defs>
<linearGradient id="paint0_linear_1849_1144" x1="946.38" y1="2.56637" x2="643.118" y2="305.876" gradientUnits="userSpaceOnUse">
<stop/>
<stop offset="1" stop-color="#1A0052"/>
</linearGradient>
<radialGradient id="paint1_radial_1849_1144" cx="0" cy="0" r="1" gradientUnits="userSpaceOnUse" gradientTransform="translate(849.815 155.79) rotate(129.259) scale(134.239 134.152)">
<stop stop-color="#0E012B"/>
<stop offset="0.245616" stop-color="#0E012B"/>
<stop offset="0.555123" stop-color="#0E155A"/>
<stop offset="1" stop-color="#172A80"/>
</radialGradient>
<radialGradient id="paint2_radial_1849_1144" cx="0" cy="0" r="1" gradientUnits="userSpaceOnUse" gradientTransform="translate(772.641 110.874) rotate(85.2595) scale(178.511 210.327)">
<stop stop-color="#9DE2FF"/>
<stop offset="0.427083" stop-color="#5E97F9"/>
<stop offset="0.846711" stop-color="#0C34F0"/>
<stop offset="0.994638" stop-color="#101B4B"/>
</radialGradient>
</defs>
</svg>
